<!DOCTYPE svg PUBLIC "-//W3C//DTD SVG 1.1//EN" "http://www.w3.org/Graphics/SVG/1.1/DTD/svg11.dtd">
<!-- Uploaded to: SVG Repo, www.svgrepo.com, Transformed by: SVG Repo Mixer Tools -->
<svg height="800px" width="800px" version="1.1" id="Layer_1" xmlns="http://www.w3.org/2000/svg" xmlns:xlink="http://www.w3.org/1999/xlink" viewBox="0 0 511.999 511.999" xml:space="preserve" fill="#000000">
<g id="SVGRepo_bgCarrier" stroke-width="0"/>
<g id="SVGRepo_tracerCarrier" stroke-linecap="round" stroke-linejoin="round"/>
<g id="SVGRepo_iconCarrier"> <path style="fill:#82a12b;" d="M144.777,207.493h-14.94v-14.94c0-9.267-7.514-16.783-16.783-16.783s-16.783,7.515-16.783,16.783 v14.94H81.33c-9.269,0-16.783,7.515-16.783,16.783s7.514,16.783,16.783,16.783h14.941v14.94c0,9.267,7.514,16.783,16.783,16.783 c9.269,0,16.783-7.515,16.783-16.783v-14.94h14.94c9.269,0,16.783-7.515,16.783-16.783S154.046,207.493,144.777,207.493z"/> <path style="fill:#c3ff42;" d="M423.941,79.796c-15.667-15.666-32.934-28.737-51.276-39.234 c53.224,92.95,40.166,213.516-39.211,292.892s-199.942,92.435-292.891,39.211c10.497,18.342,23.568,35.609,39.234,51.276 c95.031,95.031,249.113,95.031,344.144,0S518.974,174.827,423.941,79.796z"/> <path style="fill:#82a12b;" d="M441.124,430.321c1.307-1.385,2.605-2.777,3.877-4.186c0.06-0.067,0.119-0.136,0.178-0.201 c43.185-47.845,66.816-109.139,66.816-174.067s-23.63-126.22-66.815-174.065c-0.06-0.067-0.117-0.136-0.178-0.201 c-1.274-1.408-2.569-2.799-3.877-4.186c-0.228-0.242-0.45-0.488-0.678-0.73c-1.524-1.601-3.068-3.187-4.637-4.756 c-1.853-1.853-3.737-3.664-5.639-5.456c-0.361-0.339-0.72-0.68-1.082-1.017c-1.918-1.787-3.858-3.548-5.824-5.273 c-0.134-0.117-0.272-0.233-0.406-0.351c-2.037-1.781-4.1-3.528-6.188-5.241c-0.069-0.055-0.136-0.112-0.203-0.168 c-2.182-1.787-4.394-3.534-6.629-5.248c-0.069-0.054-0.139-0.106-0.21-0.159c-4.536-3.469-9.18-6.782-13.926-9.937 c-0.008-0.005-0.017-0.012-0.025-0.017c-9.665-6.424-19.748-12.203-30.219-17.281c-14.79-7.183-30.351-12.973-46.251-17.212 c-5.785-1.547-11.958,0.112-16.192,4.352c-4.234,4.236-5.889,10.407-4.345,16.193c11.368,42.569,10.174,87.194-3.456,129.048 c-2.87,8.814,1.948,18.286,10.761,21.154c8.813,2.871,18.285-1.947,21.154-10.761c12.525-38.459,15.901-78.952,10.056-118.639 c4.608,1.871,9.155,3.894,13.619,6.06c3.227,1.566,6.399,3.226,9.541,4.941c47.923,87.779,32.288,197.631-38.756,268.675 c-42.782,42.782-99.668,66.343-160.183,66.346c-37.986,0.002-75.396-9.558-108.518-27.636c-1.707-3.13-3.36-6.29-4.917-9.502 c-2.172-4.474-4.196-9.026-6.069-13.643c80.695,11.76,163.502-15.088,221.833-73.419c6.554-6.554,6.554-17.18,0-23.736 c-6.554-6.552-17.18-6.552-23.736,0c-57.017,57.02-140.889,79.499-218.888,58.668c-5.785-1.542-11.958,0.111-16.193,4.343 c-4.236,4.233-5.896,10.404-4.353,16.192c4.234,15.886,10.024,31.447,17.209,46.246c5.078,10.469,10.855,20.55,17.278,30.214 c0.01,0.017,0.022,0.034,0.032,0.049c3.148,4.736,6.455,9.37,9.915,13.896c0.06,0.081,0.123,0.161,0.183,0.24 c1.707,2.227,3.449,4.431,5.229,6.606c0.064,0.077,0.129,0.154,0.193,0.233c1.703,2.074,3.439,4.125,5.209,6.149 c0.126,0.143,0.248,0.289,0.374,0.431c1.72,1.959,3.474,3.892,5.255,5.803c0.346,0.371,0.695,0.74,1.042,1.109 c1.787,1.896,3.595,3.778,5.443,5.625c49.131,49.131,114.455,76.189,183.94,76.189c69.483,0,134.807-27.058,183.94-76.189 c1.569-1.569,3.113-3.155,4.637-4.756C440.676,430.81,440.896,430.563,441.124,430.321z M412.074,412.072 c-42.792,42.792-99.687,66.36-160.204,66.36c-60.52,0-117.414-23.568-160.206-66.36c-0.029-0.029-0.057-0.06-0.086-0.089 c22.63,6.285,46.137,9.517,69.829,9.516c69.478-0.003,134.794-27.057,183.915-76.178c67.315-67.316,91.299-164.984,66.694-253.715 c0.018,0.018,0.039,0.037,0.059,0.055c52.45,52.449,73.759,124.431,63.925,192.749c-1.035,7.191-2.415,14.342-4.14,21.425 c-0.863,3.541-1.811,7.067-2.846,10.571c-0.517,1.752-1.057,3.499-1.618,5.241c-1.121,3.482-2.329,6.945-3.623,10.38 c-1.294,3.435-2.675,6.846-4.14,10.227s-3.019,6.735-4.659,10.056c-0.819,1.661-1.661,3.313-2.524,4.958 c-1.725,3.288-3.538,6.542-5.434,9.759C437.523,383.115,425.877,398.27,412.074,412.072z"/> </g>
</svg>